<?xml version="1.0" standalone="no"?>
<!DOCTYPE svg PUBLIC "-//W3C//DTD SVG 20010904//EN"
 "http://www.w3.org/TR/2001/REC-SVG-20010904/DTD/svg10.dtd">
<svg version="1.0" xmlns="http://www.w3.org/2000/svg"
 width="500.000000pt" height="500.000000pt" viewBox="0 0 500.000000 500.000000"
 preserveAspectRatio="xMidYMid meet">

<g transform="translate(0.000000,500.000000) scale(0.100000,-0.100000)"
fill="#000000" stroke="none">
<path d="M2457 4602 c-66 -69 -170 -393 -262 -819 l-5 -23 -268 -1 c-147 -1
-296 -4 -332 -8 -58 -5 -65 -9 -68 -29 -5 -33 34 -178 67 -248 l29 -61 53 -6
c70 -9 1602 -9 1663 -1 45 7 47 8 76 68 33 68 73 213 68 248 -3 20 -10 24 -68
29 -36 4 -185 7 -332 8 l-268 1 -5 23 c-31 146 -111 457 -140 547 -64 197
-120 300 -165 300 -9 0 -28 -12 -43 -28z"/>
<path d="M2276 3233 c-16 -8 -58 -39 -92 -68 -34 -29 -76 -56 -93 -60 -42 -9
-95 10 -126 46 -17 21 -25 26 -25 14 0 -47 104 -171 175 -208 31 -17 57 -21
115 -21 97 1 178 31 234 88 l41 41 41 -41 c56 -57 137 -87 234 -88 58 0 84 4
115 21 71 37 175 161 175 208 0 12 -8 7 -25 -14 -31 -36 -84 -55 -126 -46 -17
4 -59 31 -94 60 -82 70 -114 85 -177 85 -56 0 -107 -23 -130 -59 -11 -19 -12
-18 -31 5 -10 13 -32 31 -47 39 -38 19 -127 18 -164 -2z"/>
<path d="M1197 2953 c-4 -3 -7 -10 -7 -13 0 -9 161 -105 250 -150 35 -18 82
-44 103 -57 32 -20 41 -22 48 -11 13 20 11 24 -18 37 -16 7 -103 55 -194 107
-176 99 -172 98 -182 87z"/>
<path d="M3625 2874 c-82 -47 -172 -97 -198 -110 -42 -22 -46 -27 -33 -39 12
-13 25 -9 98 32 232 129 306 176 301 189 -3 8 -8 14 -12 14 -3 0 -73 -39 -156
-86z"/>
<path d="M1200 2893 c0 -15 174 -118 256 -154 67 -28 52 -3 -18 32 -35 17
-100 53 -144 80 -83 50 -94 55 -94 42z"/>
<path d="M1983 2882 c-18 -9 -33 -21 -33 -28 0 -13 46 -101 87 -166 13 -21 23
-40 23 -44 0 -10 130 -222 146 -238 7 -8 14 -19 14 -25 0 -5 6 -16 13 -23 7
-7 26 -34 42 -60 17 -27 33 -48 38 -48 4 0 7 -5 7 -11 0 -11 50 -82 63 -87 4
-2 7 -8 7 -14 0 -6 11 -26 25 -44 30 -39 31 -51 6 -59 -10 -3 -18 -13 -17 -23
1 -21 -32 -23 -59 -2 -15 11 -14 8 4 -12 31 -36 23 -62 -16 -47 -23 8 -26 8
-15 -2 6 -7 12 -22 12 -32 0 -17 -5 -19 -32 -13 -30 6 -31 6 -14 -13 10 -11
15 -24 12 -29 -8 -13 -41 -8 -62 9 -13 10 -12 6 4 -15 28 -36 28 -44 0 -48
-15 -2 -23 -10 -23 -23 0 -14 -6 -20 -22 -19 -19 1 -22 -2 -16 -24 5 -23 4
-24 -24 -20 -28 4 -30 2 -19 -14 8 -14 24 -18 73 -18 35 0 63 3 63 8 0 4 15
23 33 43 17 20 43 51 57 68 14 17 38 45 54 63 15 18 34 47 42 64 26 61 35 59
94 -19 30 -39 66 -84 80 -100 14 -15 43 -50 65 -77 l40 -50 61 0 c46 0 63 4
68 15 4 11 -1 15 -19 15 -34 0 -38 13 -13 46 17 21 18 25 4 14 -42 -33 -74 -8
-40 33 10 12 12 16 4 10 -18 -16 -60 -17 -60 -1 0 6 8 21 18 32 11 14 12 17 2
11 -25 -17 -55 -12 -55 9 0 10 -10 23 -23 27 -24 9 -23 16 7 54 15 19 15 19
-4 4 -21 -17 -55 -15 -55 4 0 6 10 22 23 36 17 21 18 22 2 9 -22 -18 -57 -18
-62 -1 -2 6 1 14 6 18 20 12 11 24 -14 19 -25 -4 -36 18 -15 31 17 10 11 25
-7 19 -15 -5 -15 -4 -3 4 8 6 17 9 22 6 4 -2 12 6 19 18 7 12 18 28 25 35 6 7
22 29 35 50 13 21 25 40 28 43 13 11 91 131 91 139 0 5 4 11 8 13 22 8 262
428 262 457 0 15 -73 40 -91 30 -9 -4 -20 -5 -24 -1 -4 4 -2 -3 6 -15 15 -25
10 -33 -20 -36 -19 -1 -19 -2 -4 -19 19 -21 14 -29 -21 -32 -22 -1 -23 -2 -9
-18 20 -22 10 -37 -22 -33 -24 2 -25 1 -9 -16 20 -23 11 -38 -21 -34 -24 2
-25 1 -9 -16 16 -18 11 -44 -7 -34 -5 4 -9 1 -9 -6 0 -8 -5 -8 -17 2 -16 12
-15 11 0 -8 18 -21 15 -49 -4 -38 -5 4 -9 1 -9 -6 0 -8 -5 -8 -17 2 -14 10
-13 8 2 -10 19 -22 19 -23 1 -37 -15 -11 -23 -11 -35 -2 -10 8 -9 5 2 -9 23
-27 13 -47 -20 -40 -23 4 -23 4 -7 -15 27 -29 4 -46 -39 -30 l-32 12 27 -23
c28 -22 27 -39 -2 -49 -8 -2 -15 -13 -15 -23 0 -21 -33 -29 -55 -12 -8 6 -4
-1 9 -15 27 -31 22 -47 -14 -43 -24 2 -24 1 -10 -15 12 -14 13 -19 3 -27 -7
-6 -21 -9 -30 -8 -15 3 -16 0 -7 -16 13 -24 2 -44 -15 -30 -7 6 -16 8 -19 4
-4 -3 -14 0 -24 8 -9 8 -14 9 -10 2 4 -6 3 -14 -2 -17 -15 -10 -23 12 -12 33
9 17 8 19 -14 16 -36 -3 -41 12 -14 43 13 14 17 21 9 15 -20 -15 -55 -10 -56
8 -1 8 -2 19 -3 26 -1 7 -8 10 -18 6 -13 -5 -15 -2 -10 16 4 17 0 24 -19 31
-28 11 -29 17 -9 40 14 16 14 17 -8 13 -32 -6 -44 13 -23 36 16 17 15 18 -7
14 -33 -6 -43 13 -21 40 10 12 13 17 5 11 -15 -13 -51 -7 -51 9 0 6 8 20 17
31 10 12 12 16 4 10 -15 -13 -51 -7 -51 9 0 6 8 20 18 31 16 20 16 20 0 7 -12
-9 -18 -10 -18 -2 0 6 -6 10 -12 9 -7 -2 -14 4 -14 12 -1 8 -2 21 -3 28 0 6
-7 11 -13 10 -8 -2 -13 7 -13 22 0 15 -6 25 -15 25 -10 0 -14 9 -12 24 1 16
-4 24 -18 28 -15 4 -18 11 -14 28 4 17 0 24 -17 28 -23 6 -23 6 -4 29 11 13
16 20 11 16 -4 -4 -18 -3 -30 1 -13 6 -33 3 -53 -7z m533 -712 c-1 -8 6 -14
16 -14 10 1 15 -2 13 -7 -3 -4 -17 -7 -32 -6 -19 2 -27 8 -28 23 -1 12 5 20
15 20 10 0 17 -7 16 -16z m-41 -159 c0 -22 -32 -38 -46 -24 -9 9 -9 16 1 28
15 19 45 16 45 -4z"/>
<path d="M3703 2855 c-39 -24 -103 -60 -142 -80 -72 -36 -100 -68 -38 -42 71
30 267 147 267 160 0 14 -16 7 -87 -38z"/>
<path d="M1606 2708 c-25 -36 -19 -56 23 -77 32 -17 39 -26 45 -61 3 -23 10
-39 15 -36 5 3 6 16 4 30 -4 18 0 26 16 31 12 3 28 20 36 35 15 29 15 30 -22
53 -87 55 -95 56 -117 25z m97 -95 c-15 -5 -73 24 -73 37 0 6 19 1 43 -11 23
-12 37 -24 30 -26z"/>
<path d="M3288 2694 l-57 -35 16 -34 c9 -18 25 -36 36 -39 15 -4 18 -10 13
-30 -3 -14 -3 -26 2 -26 5 0 13 17 18 37 6 27 19 45 47 62 40 27 45 45 21 79
-20 29 -29 28 -96 -14z m72 -44 c0 -13 -58 -42 -73 -37 -7 2 6 13 28 25 48 25
45 24 45 12z"/>
<path d="M1510 2711 c0 -5 7 -14 15 -21 8 -7 15 -19 15 -26 0 -8 5 -14 11 -14
5 0 7 -5 3 -11 -4 -7 -1 -10 7 -7 19 6 13 59 -9 76 -18 14 -42 16 -42 3z"/>
<path d="M3439 2707 c-15 -11 -35 -77 -23 -77 9 0 34 28 34 38 0 5 7 15 15 22
31 26 7 42 -26 17z"/>
<path d="M1745 2600 c-14 -27 -25 -53 -25 -58 0 -8 47 -36 62 -37 8 0 68 91
68 103 0 7 -63 42 -75 42 -3 0 -16 -22 -30 -50z"/>
<path d="M3177 2631 c-15 -10 -30 -21 -33 -24 -6 -6 53 -107 62 -107 3 0 17 8
32 17 15 9 28 18 30 19 5 3 -52 114 -58 113 -3 0 -17 -8 -33 -18z"/>
<path d="M1590 2626 c0 -3 14 -12 30 -21 17 -9 30 -13 30 -11 0 3 -13 12 -30
21 -16 9 -30 13 -30 11z"/>
<path d="M3365 2610 c-33 -22 -29 -26 10 -8 14 6 25 15 25 20 0 11 -1 11 -35
-12z"/>
<path d="M1836 2547 c-34 -52 -34 -52 -12 -64 29 -17 34 -16 32 5 -1 11 5 16
17 14 15 -3 17 1 12 18 -7 22 11 54 26 44 5 -3 9 -1 9 4 0 5 -11 14 -25 20
-24 11 -27 9 -59 -41z"/>
<path d="M3093 2588 c-29 -14 -29 -24 -2 -31 17 -5 20 -11 15 -31 -5 -22 -3
-26 14 -26 11 0 20 -7 20 -15 0 -8 -5 -15 -12 -15 -6 0 -9 -3 -6 -6 4 -3 20 2
37 10 l31 16 -36 55 c-20 30 -37 55 -38 54 -1 0 -11 -5 -23 -11z"/>
<path d="M3037 2533 c-24 -24 6 -73 45 -73 7 0 2 6 -12 13 -18 9 -25 21 -25
40 1 30 1 30 -8 20z"/>
<path d="M1910 2510 c-9 -16 -8 -20 5 -20 8 0 15 9 15 20 0 11 -2 20 -5 20 -2
0 -9 -9 -15 -20z"/>
<path d="M1951 2515 c0 -12 -5 -26 -11 -33 -5 -7 -3 -6 6 2 9 7 14 22 11 32
-4 17 -5 17 -6 -1z"/>
<path d="M3060 2513 c0 -12 5 -25 11 -28 19 -12 22 3 5 27 l-16 22 0 -21z"/>
<path d="M1717 2499 c4 -13 8 -18 11 -10 2 7 -1 18 -6 23 -8 8 -9 4 -5 -13z"/>
<path d="M1977 2498 c-8 -30 -5 -30 16 -2 14 19 15 24 4 24 -8 0 -17 -10 -20
-22z"/>
<path d="M2980 2515 c0 -3 9 -14 20 -25 11 -11 20 -16 20 -11 0 5 -7 17 -16
25 -16 16 -24 20 -24 11z"/>
<path d="M3263 2508 c-10 -18 -13 -39 -3 -33 8 5 21 45 15 45 -2 0 -7 -6 -12
-12z"/>
<path d="M3175 2464 c-33 -16 -63 -24 -87 -22 -21 2 -38 1 -38 -3 0 -8 35 -39
44 -39 8 0 136 80 136 86 0 5 3 6 -55 -22z"/>
<path d="M1800 2461 c14 -11 41 -29 61 -40 l36 -21 21 23 21 23 -42 0 c-23 0
-60 8 -82 17 l-40 18 25 -20z"/>
<path d="M1757 2459 c7 -7 15 -10 18 -7 3 3 -2 9 -12 12 -14 6 -15 5 -6 -5z"/>
<path d="M1898 2463 c7 -3 16 -2 19 1 4 3 -2 6 -13 5 -11 0 -14 -3 -6 -6z"/>
<path d="M1928 2408 l-27 -30 -46 25 c-25 14 -45 22 -45 17 0 -5 9 -12 20 -15
22 -7 45 -41 33 -48 -5 -2 -21 -7 -36 -11 -38 -9 -26 -24 15 -19 l33 4 -27
-16 c-32 -18 -73 -7 -83 24 -7 24 4 71 17 71 5 0 6 5 2 12 -11 18 -34 -21 -34
-59 0 -39 32 -73 70 -73 27 0 58 27 99 88 19 27 26 31 37 21 8 -7 17 -9 21 -5
3 3 1 6 -6 6 -8 0 -10 7 -6 20 9 28 -5 23 -37 -12z"/>
<path d="M3023 2416 c2 -19 6 -24 18 -21 12 4 25 -8 43 -40 15 -24 35 -49 46
-55 48 -26 110 4 110 55 0 31 -20 76 -32 69 -4 -3 -1 -15 7 -27 20 -29 19 -53
-5 -77 -24 -24 -49 -25 -76 -5 -18 14 -16 15 19 9 24 -4 37 -2 37 5 0 6 -4 11
-9 11 -5 0 -22 5 -38 11 l-28 11 35 29 c41 34 33 37 -21 7 l-39 -22 -34 33
-34 33 1 -26z"/>
<path d="M2370 2390 c-9 -6 -10 -10 -3 -10 6 0 15 5 18 10 8 12 4 12 -15 0z"/>
<path d="M1926 2358 c-13 -19 -14 -24 -2 -37 25 -28 29 -69 12 -116 -10 -24
-24 -49 -32 -55 -19 -16 -18 -30 2 -30 9 0 44 -14 76 -30 33 -17 63 -29 65
-26 3 3 7 51 10 108 6 113 -5 154 -50 182 -43 27 -64 28 -81 4z"/>
<path d="M3011 2367 c-21 -7 -42 -24 -58 -49 -25 -37 -26 -43 -20 -144 2 -58
7 -107 10 -110 2 -2 33 9 68 26 35 16 69 30 76 30 7 0 0 22 -18 56 -34 65 -36
88 -10 130 17 28 17 32 2 51 -14 17 -21 18 -50 10z"/>
<path d="M1960 2071 c30 -17 60 -30 65 -30 16 -1 -67 46 -95 53 -14 4 0 -7 30
-23z"/>
<path d="M3021 2074 c-28 -15 -50 -28 -48 -31 6 -5 107 45 107 52 0 8 -3 7
-59 -21z"/>
<path d="M2180 1836 c0 -2 8 -10 18 -17 15 -13 16 -12 3 4 -13 16 -21 21 -21
13z"/>
</g>
</svg>
