<?xml version="1.0" standalone="no"?>
<!DOCTYPE svg PUBLIC "-//W3C//DTD SVG 20010904//EN"
 "http://www.w3.org/TR/2001/REC-SVG-20010904/DTD/svg10.dtd">
<svg version="1.0" xmlns="http://www.w3.org/2000/svg"
 width="100.000000pt" height="100.000000pt" viewBox="0 0 100.000000 100.000000"
 preserveAspectRatio="xMidYMid meet">

<g transform="translate(0.000000,100.000000) scale(0.100000,-0.100000)"
fill="#000000" stroke="none">
<path d="M460 747 c-43 -15 -52 -53 -21 -81 18 -16 23 -17 37 -5 14 12 14 14
-1 25 -24 18 -10 34 30 34 39 0 57 -19 26 -27 -12 -3 -21 -13 -21 -25 0 -14 5
-18 16 -14 13 5 15 2 10 -16 -4 -13 -10 -49 -13 -80 -3 -32 -10 -58 -15 -58
-6 0 -7 26 -3 65 6 54 5 65 -7 65 -9 0 -23 -19 -32 -44 -18 -47 -51 -76 -86
-76 -20 0 -20 1 -5 30 20 39 13 50 -29 43 -18 -3 -43 0 -55 7 -27 14 -51 -1
-51 -31 0 -25 -28 -24 -55 1 -13 12 -29 18 -38 14 -24 -9 -21 -19 10 -43 16
-11 38 -30 49 -42 14 -14 24 -17 28 -10 10 15 36 14 70 -4 22 -12 46 -14 90
-10 56 6 60 5 42 -9 -16 -13 -51 -16 -197 -16 -120 0 -180 -4 -185 -11 -13
-22 24 -29 169 -29 l147 0 0 -25 c0 -31 41 -75 70 -75 22 0 40 34 40 75 0 31
14 39 40 23 17 -11 22 -11 29 1 6 10 22 12 55 9 30 -4 49 -1 54 6 4 7 52 20
106 29 155 27 228 69 181 103 -27 20 -69 17 -187 -10 -57 -14 -121 -28 -142
-32 l-39 -7 20 29 c60 88 63 220 4 199 -7 -3 -19 2 -25 10 -15 21 -74 27 -116
12z m145 -104 c-4 -21 -15 -53 -25 -73 -18 -33 -19 -34 -20 -9 0 42 30 119 47
119 3 0 2 -17 -2 -37z m-284 -103 c5 0 9 -4 9 -10 0 -5 -13 -10 -30 -10 -22 0
-28 4 -23 16 3 8 12 13 20 10 8 -3 19 -6 24 -6z m583 -19 c8 -13 -195 -61
-260 -61 -39 0 192 66 243 69 6 1 14 -3 17 -8z m-462 -151 c-3 -25 -7 -28 -18
-19 -17 14 -18 31 -2 47 17 17 25 6 20 -28z"/>
</g>
</svg>
